<svg xmlns="http://www.w3.org/2000/svg" viewBox="0 0 48 48" width="48px" height="48px">
  <path fill="#6E00FF" d="M42,24c0,9.941-8.059,18-18,18S6,33.941,6,24S14.059,6,24,6S42,14.059,42,24z"/>
  <path fill="#FFF" d="M24,14c-2.209,0-4,1.791-4,4c0,1.477,0.809,2.752,2,3.445V26h4v-4.555c1.191-0.693,2-1.968,2-3.445 C28,15.791,26.209,14,24,14z M18,22c-1.657,0-3,1.343-3,3s1.343,3,3,3s3-1.343,3-3S19.657,22,18,22z M30,22c-1.657,0-3,1.343-3,3 s1.343,3,3,3s3-1.343,3-3S31.657,22,30,22z"/>
  <circle fill="#6E00FF" cx="18" cy="25" r="1.5"/>
  <circle fill="#6E00FF" cx="30" cy="25" r="1.5"/>
</svg> 